<svg width="360" height="83" viewBox="0 0 360 83" fill="none" xmlns="http://www.w3.org/2000/svg">
<mask id="mask0_312_885" style="mask-type:luminance" maskUnits="userSpaceOnUse" x="1" y="1" width="81" height="80">
<path d="M1.14697 41.0092C1.14887 48.8933 3.5175 56.5999 7.9534 63.1545C12.3893 69.7091 18.6933 74.8175 26.0683 77.8337C33.4433 80.85 41.5582 81.6387 49.387 80.1001C57.2158 78.5616 64.4069 74.7648 70.0513 69.1899C75.6956 63.615 79.5396 56.5122 81.0973 48.7797C82.6551 41.0471 81.8565 33.032 78.8027 25.7477C75.7489 18.4634 70.577 12.2369 63.9408 7.85555C57.3045 3.4742 49.502 1.13469 41.5198 1.13281C36.2176 1.13157 30.9671 2.16215 26.0683 4.16569C21.1695 6.16922 16.7183 9.10645 12.9691 12.8096C9.21987 16.5127 6.24608 20.9091 4.2176 25.7477C2.18912 30.5863 1.14571 35.7722 1.14697 41.0092Z" fill="white"/>
</mask>
<g mask="url(#mask0_312_885)">
<path d="M81.871 66.6249H1.14697V49.5574H81.871V66.6249ZM81.871 15.4365H1.14697V32.5041H81.871V15.4365Z" fill="#F7BE00"/>
</g>
<path d="M41.52 1.71393e-06C33.3081 1.71393e-06 25.2807 2.40517 18.4527 6.91135C11.6248 11.4175 6.30309 17.8223 3.16054 25.3158C0.0179899 32.8093 -0.804245 41.055 0.797814 49.01C2.39987 56.9651 6.35427 64.2723 12.1609 70.0076C17.9676 75.7428 25.3658 79.6486 33.4199 81.231C41.474 82.8133 49.8223 82.0012 57.409 78.8973C64.9958 75.7934 71.4804 70.5371 76.0426 63.7931C80.6049 57.0492 83.04 49.1204 83.04 41.0095C83.0416 35.6236 81.9687 30.2902 79.8827 25.314C77.7967 20.3378 74.7384 15.8163 70.8826 12.0079C67.0268 8.19954 62.4491 5.17886 57.4109 3.11849C52.3728 1.05812 46.9729 -0.00155557 41.52 1.71393e-06ZM41.52 80.8669C33.536 80.8692 25.7306 78.5328 19.0912 74.1532C12.4517 69.7736 7.27636 63.5475 4.21981 56.2624C1.16326 48.9774 0.362781 40.9606 1.91963 33.2261C3.47647 25.4917 7.3207 18.387 12.9661 12.8107C18.6115 7.23439 25.8044 3.437 33.635 1.89884C41.4657 0.360677 49.5823 1.15084 56.9582 4.16937C64.3342 7.18791 70.6381 12.2992 75.0726 18.8568C79.5072 25.4144 81.8731 33.1236 81.8712 41.0095C81.8687 51.5791 77.6167 61.7152 70.05 69.1893C62.4833 76.6634 52.2213 80.8638 41.52 80.8669Z" fill="white"/>
<path d="M104.729 21.6807H133.306C144.516 21.6807 147.305 26.5141 147.305 30.8284V31.3997C147.305 36.2355 143.043 38.6771 140.105 39.0421C144.526 39.6656 149.263 42.4201 149.263 48.6071V49.1784C149.263 54.429 146.052 60.3552 133.474 60.3552H104.729V21.6807ZM115.57 29.7403V36.6527H131.727C134.991 36.6527 135.991 35.0929 135.991 33.2747V33.1704C135.991 31.2977 134.938 29.7403 131.727 29.7403H115.57ZM115.57 44.243V51.8831H132.569C136.409 51.8831 137.465 49.9606 137.465 47.986V47.7774C137.465 45.8549 136.411 44.243 132.569 44.243H115.57Z" fill="white"/>
<path d="M174.015 61.0311H172.066C157.647 61.0311 154.066 53.2346 154.066 46.3199V45.5921C154.066 39.0425 157.328 30.8809 171.168 30.8809H173.484C188.432 30.8809 191.117 39.0946 191.117 47.1519V48.1001H164.54C165.02 51.4188 167.067 54.1283 173.381 54.1283C179.331 54.1283 180.118 51.8929 180.341 51.3737H191.026C191.014 53.7016 189.12 61.0311 174.015 61.0311ZM164.655 42.629H180.128C180.075 40.4956 179.076 37.4827 172.498 37.4827C167.12 37.4827 165.276 39.6137 164.64 42.629H164.655Z" fill="white"/>
<path d="M215.558 61.0311H213.6C199.178 61.0311 195.6 53.2346 195.6 46.3199V45.5921C195.6 39.0425 198.864 30.8809 212.705 30.8809H215.04C229.987 30.8809 232.671 39.0946 232.671 47.1519V48.1001H206.083C206.563 51.4188 208.611 54.1283 214.925 54.1283C220.872 54.1283 221.662 51.8929 221.885 51.3737H232.56C232.56 53.7016 230.662 61.0311 215.558 61.0311ZM206.198 42.629H221.671C221.618 40.4956 220.62 37.4827 214.039 37.4827C208.663 37.4827 206.82 39.6137 206.189 42.629H206.198Z" fill="white"/>
<path d="M248.196 60.355H237.934V21.0049H248.196V60.355Z" fill="white"/>
<path d="M264.78 28.2823H254.307V21.0049H264.78V28.2823ZM264.675 60.355H254.412V31.5038H264.675V60.355Z" fill="white"/>
<path d="M270.507 31.5037H280.666V36.0788C281.866 34.519 285.874 30.8281 292.505 30.8281H293.033C301.558 30.8281 305.453 36.5457 305.453 41.6399V60.3668H295.2V45.3308C295.2 42.0121 293.252 38.7811 288.2 38.7811C283.306 38.7811 280.779 42.1614 280.779 45.6958V60.355H270.516L270.507 31.5037Z" fill="white"/>
<path d="M330.893 61.0311H328.947C314.525 61.0311 310.947 53.2346 310.947 46.3199V45.5921C310.947 39.0425 314.211 30.8809 328.052 30.8809H330.368C345.315 30.8809 347.998 39.0946 347.998 47.1519V48.1001H321.42C321.9 51.4188 323.948 54.1283 330.262 54.1283C336.209 54.1283 336.999 51.8929 337.222 51.3737H347.904C347.892 53.7016 345.999 61.0311 330.893 61.0311ZM321.533 42.629H337.006C336.953 40.4956 335.952 37.4827 329.374 37.4827C324 37.4827 322.157 39.6137 321.526 42.629H321.533Z" fill="white"/>
<path d="M352.037 32.7582C346.296 32.7582 344.837 29.6765 344.837 27.0429V26.6162C344.837 24.1746 346.155 20.9697 352.037 20.9697H352.899C358.752 20.9697 360 24.1746 360 26.6589V27.0406C360 29.6623 358.207 32.7558 352.853 32.7558L352.037 32.7582ZM352.517 31.2339C357.557 31.2339 358.212 28.6786 358.212 26.7063C358.212 24.8478 357.6 22.494 352.517 22.494H352.474C347.254 22.494 346.714 24.7578 346.714 26.8414C346.714 28.835 347.259 31.2339 352.474 31.2339H352.517ZM351.156 29.8662H348.821V23.8167H353.902C355.74 23.8167 356.261 24.4875 356.261 25.2722V25.3646C356.259 25.6918 356.136 26.007 355.915 26.2507C355.694 26.4944 355.39 26.6497 355.061 26.6873C355.947 26.8651 356.355 27.4269 356.355 28.0528V29.1574C356.355 29.4916 356.376 29.6315 356.491 29.7619V29.8685H354.178C354.105 29.8046 354.049 29.7248 354.013 29.6355C353.977 29.5462 353.963 29.4498 353.971 29.3542V28.726C353.971 28.1215 353.791 27.875 353.201 27.875H351.159L351.156 29.8662ZM353.335 26.3484C353.835 26.3484 353.969 26.1113 353.969 25.7889C353.969 25.4665 353.835 25.2058 353.335 25.2058H351.156V26.3484H353.335Z" fill="white"/>
</svg>
