<svg width="499" height="78" viewBox="0 0 499 78" fill="none" xmlns="http://www.w3.org/2000/svg">
<g opacity="0.05">
<path d="M0 1H55.8261C77.7261 1 83.1742 10.4983 83.1742 18.9763V20.099C83.1742 29.6019 74.8474 34.3999 69.1087 35.1173C77.7449 36.3424 87 41.7554 87 53.9135V55.0362C87 65.3543 80.7268 77 56.1543 77H0V1ZM21.178 16.8382V30.4218H52.7411C59.1174 30.4218 61.0725 27.3566 61.0725 23.7837V23.5787C61.0725 19.8987 59.0143 16.8382 52.7411 16.8382H21.178ZM21.178 45.3376V60.3513H54.3867C61.8883 60.3513 63.9513 56.5734 63.9513 52.693V52.2831C63.9513 48.5052 61.893 45.3376 54.3867 45.3376H21.178Z" fill="white"/>
<path d="M135.304 78H131.464C103.055 78 96 62.7432 96 49.212V47.788C96 34.9711 102.426 19 129.696 19H134.259C163.709 19 169 35.0732 169 50.8402V52.6957H116.636C117.581 59.19 121.615 64.492 134.056 64.492C145.778 64.492 147.329 60.1177 147.769 59.1018H168.82C168.797 63.6571 165.066 78 135.304 78ZM116.863 41.9895H147.348C147.244 37.8147 145.277 31.9189 132.316 31.9189C121.719 31.9189 118.087 36.0891 116.834 41.9895H116.863Z" fill="white"/>
<path d="M216.764 78H212.961C184.95 78 178 62.7432 178 49.212V47.788C178 34.9711 184.34 19 211.222 19H215.757C244.789 19 250 35.0732 250 50.8402V52.6957H198.361C199.293 59.19 203.269 64.492 215.534 64.492C227.085 64.492 228.618 60.1177 229.052 59.1018H249.786C249.786 63.6571 246.098 78 216.764 78ZM198.585 41.9895H228.637C228.534 37.8147 226.595 31.9189 213.814 31.9189C203.372 31.9189 199.792 36.0891 198.566 41.9895H198.585Z" fill="white"/>
<path d="M280 77H260V0H280V77Z" fill="white"/>
<path d="M313 14.2404H292V0H313V14.2404ZM312.788 77H292.212V20.5442H312.788V77Z" fill="white"/>
<path d="M324 20.3265H343.768V29.3098C346.103 26.2471 353.902 19 366.805 19H367.833C384.421 19 392 30.2267 392 40.2293V77H372.05V47.4764C372.05 40.96 368.258 34.6159 358.427 34.6159C348.905 34.6159 343.988 41.2533 343.988 48.1932V76.9767H324.019L324 20.3265Z" fill="white"/>
<path d="M442.299 78H438.464C410.05 78 403 62.7432 403 49.212V47.788C403 34.9711 409.431 19 436.701 19H441.264C470.713 19 476 35.0732 476 50.8402V52.6957H423.636C424.581 59.19 428.615 64.492 441.056 64.492C452.773 64.492 454.329 60.1177 454.769 59.1018H475.816C475.792 63.6571 472.061 78 442.299 78ZM423.858 41.9895H454.343C454.239 37.8147 452.267 31.9189 439.306 31.9189C428.719 31.9189 425.087 36.0891 423.844 41.9895H423.858Z" fill="white"/>
<path d="M483.245 23C471.887 23 469 16.9875 469 11.8492V11.0167C469 6.25296 471.607 0 483.245 0H484.95C496.531 0 499 6.25297 499 11.0999V11.8446C499 16.9598 495.453 22.9954 484.859 22.9954L483.245 23ZM484.195 20.0261C494.166 20.0261 495.463 15.0404 495.463 11.1924C495.463 7.56646 494.252 2.97386 484.195 2.97386H484.109C473.782 2.97386 472.713 7.39071 472.713 11.4561C472.713 15.3457 473.791 20.0261 484.109 20.0261H484.195ZM481.502 17.3575H476.882V5.5546H486.934C490.572 5.5546 491.602 6.86346 491.602 8.39433V8.5747C491.598 9.21309 491.355 9.82806 490.917 10.3035C490.48 10.779 489.879 11.082 489.228 11.1554C490.98 11.5023 491.787 12.5984 491.787 13.8194V15.9747C491.787 16.6268 491.83 16.8997 492.058 17.154V17.3622H487.481C487.337 17.2374 487.225 17.0817 487.154 16.9075C487.083 16.7332 487.055 16.5452 487.072 16.3585V15.1329C487.072 13.9535 486.716 13.4725 485.548 13.4725H481.507L481.502 17.3575ZM485.814 10.4941C486.802 10.4941 487.067 10.0316 487.067 9.40257C487.067 8.77358 486.802 8.26483 485.814 8.26483H481.502V10.4941H485.814Z" fill="white"/>
</g>
</svg>
