<svg width="50" height="148" viewBox="0 0 50 148" fill="none" xmlns="http://www.w3.org/2000/svg">
<g clip-path="url(#clip0_310_64)">
<path opacity="0.15" d="M9.9704 63.0498C9.9704 60.3159 7.73845 58.0996 4.9852 58.0996C2.23195 58.0996 0 60.3159 0 63.0498C0 65.7837 2.23195 68 4.9852 68C7.73845 68 9.9704 65.7837 9.9704 63.0498Z" fill="#7093FF"/>
<path opacity="0.5" d="M9.9704 43.9003C9.9704 41.1664 7.73845 38.9501 4.9852 38.9501C2.23195 38.9501 0 41.1664 0 43.9003C0 46.6342 2.23195 48.8505 4.9852 48.8505C7.73845 48.8505 9.9704 46.6342 9.9704 43.9003Z" fill="#7093FF"/>
<path opacity="0.15" d="M30.0602 63.0498C30.0602 60.3159 27.8283 58.0996 25.075 58.0996C22.3218 58.0996 20.0898 60.3159 20.0898 63.0498C20.0898 65.7837 22.3218 68 25.075 68C27.8283 68 30.0602 65.7837 30.0602 63.0498Z" fill="#7093FF"/>
<path opacity="0.5" d="M30.0602 43.9003C30.0602 41.1664 27.8283 38.9501 25.075 38.9501C22.3218 38.9501 20.0898 41.1664 20.0898 43.9003C20.0898 46.6342 22.3218 48.8505 25.075 48.8505C27.8283 48.8505 30.0602 46.6342 30.0602 43.9003Z" fill="#7093FF"/>
<path d="M30.0602 24.0996C30.0602 21.3657 27.8283 19.1494 25.075 19.1494C22.3218 19.1494 20.0898 21.3657 20.0898 24.0996C20.0898 26.8335 22.3218 29.0498 25.075 29.0498C27.8283 29.0498 30.0602 26.8335 30.0602 24.0996Z" fill="#4C57F4"/>
<path opacity="0.15" d="M30.0602 4.95015C30.0602 2.21621 27.8283 -8.96454e-05 25.075 -8.96454e-05C22.3218 -8.96454e-05 20.0898 2.21621 20.0898 4.95015C20.0898 7.68409 22.3218 9.90039 25.075 9.90039C27.8283 9.90039 30.0602 7.68409 30.0602 4.95015Z" fill="#7093FF"/>
<path opacity="0.15" d="M50.0017 63.0498C50.0017 60.3159 47.7697 58.0996 45.0164 58.0996C42.2632 58.0996 40.0312 60.3159 40.0312 63.0498C40.0312 65.7837 42.2632 68 45.0164 68C47.7697 68 50.0017 65.7837 50.0017 63.0498Z" fill="#7093FF"/>
<path opacity="0.15" d="M50.0017 43.9003C50.0017 41.1664 47.7697 38.9501 45.0164 38.9501C42.2632 38.9501 40.0312 41.1664 40.0312 43.9003C40.0312 46.6342 42.2632 48.8505 45.0164 48.8505C47.7697 48.8505 50.0017 46.6342 50.0017 43.9003Z" fill="#7093FF"/>
<path opacity="0.5" d="M50.0016 24.0996C50.0016 21.3657 47.7697 19.1494 45.0164 19.1494C42.2632 19.1494 40.0312 21.3657 40.0312 24.0996C40.0312 26.8335 42.2632 29.0498 45.0164 29.0498C47.7697 29.0498 50.0016 26.8335 50.0016 24.0996Z" fill="#7093FF"/>
<path opacity="0.5" d="M50.0017 4.95015C50.0017 2.21621 47.7697 -9.15527e-05 45.0164 -9.15527e-05C42.2632 -9.15527e-05 40.0312 2.21621 40.0312 4.95015C40.0312 7.68409 42.2632 9.90039 45.0164 9.90039C47.7697 9.90039 50.0017 7.68409 50.0017 4.95015Z" fill="#7093FF"/>
<path opacity="0.5" d="M9.9704 143.05C9.9704 140.316 7.73845 138.1 4.9852 138.1C2.23195 138.1 0 140.316 0 143.05C0 145.784 2.23195 148 4.9852 148C7.73845 148 9.9704 145.784 9.9704 143.05Z" fill="#7093FF"/>
<path opacity="0.5" d="M9.97039 123.9C9.97039 121.166 7.73845 118.95 4.9852 118.95C2.23195 118.95 0 121.166 0 123.9C0 126.634 2.23195 128.85 4.9852 128.85C7.73845 128.85 9.97039 126.634 9.97039 123.9Z" fill="#7093FF"/>
<path opacity="0.5" d="M30.0602 143.05C30.0602 140.316 27.8283 138.1 25.075 138.1C22.3218 138.1 20.0898 140.316 20.0898 143.05C20.0898 145.784 22.3218 148 25.075 148C27.8283 148 30.0602 145.784 30.0602 143.05Z" fill="#7093FF"/>
<path opacity="0.15" d="M30.0602 123.9C30.0602 121.166 27.8283 118.95 25.075 118.95C22.3218 118.95 20.0898 121.166 20.0898 123.9C20.0898 126.634 22.3218 128.85 25.075 128.85C27.8283 128.85 30.0602 126.634 30.0602 123.9Z" fill="#7093FF"/>
<path d="M30.0602 104.1C30.0602 101.366 27.8283 99.1498 25.075 99.1498C22.3218 99.1498 20.0898 101.366 20.0898 104.1C20.0898 106.834 22.3218 109.05 25.075 109.05C27.8283 109.05 30.0602 106.834 30.0602 104.1Z" fill="#4C57F4"/>
<path opacity="0.15" d="M30.0602 84.9502C30.0602 82.2163 27.8283 80 25.0751 80C22.3218 80 20.0898 82.2163 20.0898 84.9502C20.0898 87.6841 22.3218 89.9004 25.0751 89.9004C27.8283 89.9004 30.0602 87.6841 30.0602 84.9502Z" fill="#7093FF"/>
<path opacity="0.15" d="M50.0016 143.05C50.0016 140.316 47.7697 138.1 45.0164 138.1C42.2632 138.1 40.0312 140.316 40.0312 143.05C40.0312 145.784 42.2632 148 45.0164 148C47.7697 148 50.0016 145.784 50.0016 143.05Z" fill="#7093FF"/>
<path opacity="0.3" d="M50.0016 123.9C50.0016 121.166 47.7697 118.95 45.0164 118.95C42.2632 118.95 40.0312 121.166 40.0312 123.9C40.0312 126.634 42.2632 128.85 45.0164 128.85C47.7697 128.85 50.0016 126.634 50.0016 123.9Z" fill="#7093FF"/>
<path opacity="0.3" d="M50.0016 104.1C50.0016 101.366 47.7697 99.1498 45.0164 99.1498C42.2632 99.1498 40.0312 101.366 40.0312 104.1C40.0312 106.834 42.2632 109.05 45.0164 109.05C47.7697 109.05 50.0016 106.834 50.0016 104.1Z" fill="#7093FF"/>
<path opacity="0.15" d="M50.0017 84.9502C50.0017 82.2163 47.7697 80 45.0165 80C42.2632 80 40.0312 82.2163 40.0312 84.9502C40.0312 87.6841 42.2632 89.9004 45.0165 89.9004C47.7697 89.9004 50.0017 87.6841 50.0017 84.9502Z" fill="#7093FF"/>
</g>
<defs>
<clipPath id="clip0_310_64">
<rect width="50" height="148" fill="white"/>
</clipPath>
</defs>
</svg>
