<svg width="9" height="14" viewBox="0 0 9 14" fill="none" xmlns="http://www.w3.org/2000/svg">
<path id="?" d="M3.69923 9.32162C3.30323 8.88962 3.10523 8.36162 3.10523 7.73762C3.10523 7.25762 3.24323 6.82562 3.51923 6.44162C3.79523 6.05762 4.09523 5.76962 4.41923 5.57762C4.74323 5.38562 5.04323 5.15762 5.31923 4.89362C5.59523 4.62962 5.73323 4.36562 5.73323 4.10162C5.73323 3.80162 5.61323 3.55562 5.37323 3.36362C5.14523 3.17162 4.79723 3.07562 4.32923 3.07562C3.47723 3.07562 2.73923 3.44762 2.11523 4.19162L0.657227 2.55362C1.65323 1.38962 2.96723 0.807617 4.59923 0.807617C5.75123 0.807617 6.66323 1.07162 7.33523 1.59962C8.00723 2.11562 8.34323 2.79962 8.34323 3.65162C8.34323 4.13162 8.24123 4.56362 8.03723 4.94762C7.83323 5.33162 7.58123 5.64362 7.28123 5.88362C6.99323 6.12362 6.69923 6.34562 6.39923 6.54962C6.09923 6.75362 5.84723 6.97562 5.64323 7.21562C5.43923 7.45562 5.33723 7.71362 5.33723 7.98962C5.33723 8.30162 5.44523 8.55362 5.66123 8.74562L3.69923 9.32162ZM5.58923 12.7596C5.30123 13.0476 4.95923 13.1916 4.56323 13.1916C4.16723 13.1916 3.82523 13.0476 3.53723 12.7596C3.24923 12.4716 3.10523 12.1296 3.10523 11.7336C3.10523 11.3376 3.24923 10.9956 3.53723 10.7076C3.82523 10.4196 4.16723 10.2756 4.56323 10.2756C4.95923 10.2756 5.30123 10.4196 5.58923 10.7076C5.87723 10.9956 6.02123 11.3376 6.02123 11.7336C6.02123 12.1296 5.87723 12.4716 5.58923 12.7596Z" fill="white"/>
</svg>
