<svg width="39" height="148" viewBox="0 0 39 148" fill="none" xmlns="http://www.w3.org/2000/svg">
<path opacity="0.15" d="M10.8516 63.6836C10.8516 60.9222 8.61299 58.6836 5.85156 58.6836C3.09014 58.6836 0.851563 60.9222 0.851563 63.6836C0.851563 66.445 3.09014 68.6836 5.85156 68.6836C8.61299 68.6836 10.8516 66.445 10.8516 63.6836Z" fill="#385199"/>
<path opacity="0.15" d="M10.8516 44.3418C10.8516 41.5804 8.61299 39.3418 5.85156 39.3418C3.09014 39.3418 0.851563 41.5804 0.851563 44.3418C0.851563 47.1032 3.09014 49.3418 5.85156 49.3418C8.61299 49.3418 10.8516 47.1032 10.8516 44.3418Z" fill="#385199"/>
<path opacity="0.15" d="M31 63.6836C31 60.9222 28.7614 58.6836 26 58.6836C23.2386 58.6836 21 60.9222 21 63.6836C21 66.445 23.2386 68.6836 26 68.6836C28.7614 68.6836 31 66.445 31 63.6836Z" fill="#385199"/>
<path opacity="0.15" d="M31 44.3418C31 41.5804 28.7614 39.3418 26 39.3418C23.2386 39.3418 21 41.5804 21 44.3418C21 47.1032 23.2386 49.3418 26 49.3418C28.7614 49.3418 31 47.1032 31 44.3418Z" fill="#385199"/>
<path d="M31 24.3418C31 21.5804 28.7614 19.3418 26 19.3418C23.2386 19.3418 21 21.5804 21 24.3418C21 27.1032 23.2386 29.3418 26 29.3418C28.7614 29.3418 31 27.1032 31 24.3418Z" fill="#4C57F4"/>
<path opacity="0.15" d="M31 5C31 2.23858 28.7614 0 26 0C23.2386 0 21 2.23858 21 5C21 7.76142 23.2386 10 26 10C28.7614 10 31 7.76142 31 5Z" fill="#385199"/>
<path opacity="0.15" d="M10.8516 142.042C10.8516 139.281 8.61299 137.042 5.85156 137.042C3.09014 137.042 0.851563 139.281 0.851563 142.042C0.851563 144.803 3.09014 147.042 5.85156 147.042C8.61299 147.042 10.8516 144.803 10.8516 142.042Z" fill="#385199"/>
<path opacity="0.15" d="M10.8516 122.7C10.8516 119.939 8.61299 117.7 5.85156 117.7C3.09014 117.7 0.851563 119.939 0.851563 122.7C0.851563 125.461 3.09014 127.7 5.85156 127.7C8.61299 127.7 10.8516 125.461 10.8516 122.7Z" fill="#385199"/>
<path opacity="0.15" d="M31 142.042C31 139.281 28.7614 137.042 26 137.042C23.2386 137.042 21 139.281 21 142.042C21 144.803 23.2386 147.042 26 147.042C28.7614 147.042 31 144.803 31 142.042Z" fill="#385199"/>
<path opacity="0.15" d="M31 122.7C31 119.939 28.7614 117.7 26 117.7C23.2386 117.7 21 119.939 21 122.7C21 125.461 23.2386 127.7 26 127.7C28.7614 127.7 31 125.461 31 122.7Z" fill="#385199"/>
<path d="M31 102.7C31 99.9386 28.7614 97.7 26 97.7C23.2386 97.7 21 99.9386 21 102.7C21 105.461 23.2386 107.7 26 107.7C28.7614 107.7 31 105.461 31 102.7Z" fill="#4C57F4"/>
<path opacity="0.15" d="M31 83.3584C31 80.597 28.7614 78.3584 26 78.3584C23.2386 78.3584 21 80.597 21 83.3584C21 86.1198 23.2386 88.3584 26 88.3584C28.7614 88.3584 31 86.1198 31 83.3584Z" fill="#385199"/>
</svg>
