<svg width="51" height="69" viewBox="0 0 51 69" fill="none" xmlns="http://www.w3.org/2000/svg">
<g clip-path="url(#clip0_310_53)">
<path opacity="0.15" d="M10 64C10 61.2386 7.76142 59 5 59C2.23858 59 0 61.2386 0 64C0 66.7614 2.23858 69 5 69C7.76142 69 10 66.7614 10 64Z" fill="#385199"/>
<path opacity="0.15" d="M10 44.6582C10 41.8968 7.76142 39.6582 5 39.6582C2.23858 39.6582 0 41.8968 0 44.6582C0 47.4196 2.23858 49.6582 5 49.6582C7.76142 49.6582 10 47.4196 10 44.6582Z" fill="#385199"/>
<path opacity="0.15" d="M10 24.6582C10 21.8968 7.76142 19.6582 5 19.6582C2.23858 19.6582 0 21.8968 0 24.6582C0 27.4196 2.23858 29.6582 5 29.6582C7.76142 29.6582 10 27.4196 10 24.6582Z" fill="#385199"/>
<path d="M30.1484 44.6582C30.1484 41.8968 27.9098 39.6582 25.1484 39.6582C22.387 39.6582 20.1484 41.8968 20.1484 44.6582C20.1484 47.4196 22.387 49.6582 25.1484 49.6582C27.9098 49.6582 30.1484 47.4196 30.1484 44.6582Z" fill="#4C57F4"/>
<path d="M30.1484 24.6582C30.1484 21.8968 27.9098 19.6582 25.1484 19.6582C22.387 19.6582 20.1484 21.8968 20.1484 24.6582C20.1484 27.4196 22.387 29.6582 25.1484 29.6582C27.9098 29.6582 30.1484 27.4196 30.1484 24.6582Z" fill="#4C57F4"/>
<path opacity="0.15" d="M30.1484 5.3164C30.1484 2.55498 27.9098 0.316406 25.1484 0.316406C22.387 0.316406 20.1484 2.55498 20.1484 5.3164C20.1484 8.07783 22.387 10.3164 25.1484 10.3164C27.9098 10.3164 30.1484 8.07783 30.1484 5.3164Z" fill="#385199"/>
<path opacity="0.15" d="M50.1484 44.6582C50.1484 41.8968 47.9098 39.6582 45.1484 39.6582C42.387 39.6582 40.1484 41.8968 40.1484 44.6582C40.1484 47.4196 42.387 49.6582 45.1484 49.6582C47.9098 49.6582 50.1484 47.4196 50.1484 44.6582Z" fill="#385199"/>
<path opacity="0.15" d="M50.1484 24.6582C50.1484 21.8968 47.9098 19.6582 45.1484 19.6582C42.387 19.6582 40.1484 21.8968 40.1484 24.6582C40.1484 27.4196 42.387 29.6582 45.1484 29.6582C47.9098 29.6582 50.1484 27.4196 50.1484 24.6582Z" fill="#385199"/>
<path opacity="0.15" d="M50.1484 5.3164C50.1484 2.55498 47.9098 0.316406 45.1484 0.316406C42.387 0.316406 40.1484 2.55498 40.1484 5.3164C40.1484 8.07783 42.387 10.3164 45.1484 10.3164C47.9098 10.3164 50.1484 8.07783 50.1484 5.3164Z" fill="#385199"/>
</g>
<defs>
<clipPath id="clip0_310_53">
<rect width="51" height="69" fill="white"/>
</clipPath>
</defs>
</svg>
