<svg width="69" height="51" viewBox="0 0 69 51" fill="none" xmlns="http://www.w3.org/2000/svg">
<g clip-path="url(#clip0_310_135)">
<path opacity="0.15" d="M24.3438 10C27.1052 10 29.3438 7.76142 29.3438 5C29.3438 2.23858 27.1052 0 24.3438 0C21.5823 0 19.3438 2.23858 19.3438 5C19.3438 7.76142 21.5823 10 24.3438 10Z" fill="#385199"/>
<path opacity="0.15" d="M44.3438 10C47.1052 10 49.3438 7.76142 49.3438 5C49.3438 2.23858 47.1052 0 44.3438 0C41.5823 0 39.3438 2.23858 39.3438 5C39.3438 7.76142 41.5823 10 44.3438 10Z" fill="#385199"/>
<path opacity="0.15" d="M63.6836 10C66.445 10 68.6836 7.76142 68.6836 5C68.6836 2.23858 66.445 0 63.6836 0C60.9222 0 58.6836 2.23858 58.6836 5C58.6836 7.76142 60.9222 10 63.6836 10Z" fill="#385199"/>
<path opacity="0.15" d="M5 30.1494C7.76142 30.1494 10 27.9108 10 25.1494C10 22.388 7.76142 20.1494 5 20.1494C2.23858 20.1494 0 22.388 0 25.1494C0 27.9108 2.23858 30.1494 5 30.1494Z" fill="#385199"/>
<path opacity="0.15" d="M24.3438 30.1494C27.1052 30.1494 29.3438 27.9108 29.3438 25.1494C29.3438 22.388 27.1052 20.1494 24.3438 20.1494C21.5823 20.1494 19.3438 22.388 19.3438 25.1494C19.3438 27.9108 21.5823 30.1494 24.3438 30.1494Z" fill="#385199"/>
<path d="M44.3438 30.1494C47.1052 30.1494 49.3438 27.9108 49.3438 25.1494C49.3438 22.388 47.1052 20.1494 44.3438 20.1494C41.5823 20.1494 39.3438 22.388 39.3438 25.1494C39.3438 27.9108 41.5823 30.1494 44.3438 30.1494Z" fill="#4C57F4"/>
<path opacity="0.15" d="M63.6836 30.1494C66.445 30.1494 68.6836 27.9108 68.6836 25.1494C68.6836 22.388 66.445 20.1494 63.6836 20.1494C60.9222 20.1494 58.6836 22.388 58.6836 25.1494C58.6836 27.9108 60.9222 30.1494 63.6836 30.1494Z" fill="#385199"/>
<path opacity="0.15" d="M5 50.1494C7.76142 50.1494 10 47.9108 10 45.1494C10 42.388 7.76142 40.1494 5 40.1494C2.23858 40.1494 0 42.388 0 45.1494C0 47.9108 2.23858 50.1494 5 50.1494Z" fill="#385199"/>
<path opacity="0.15" d="M24.3438 50.1494C27.1052 50.1494 29.3438 47.9108 29.3438 45.1494C29.3438 42.388 27.1052 40.1494 24.3438 40.1494C21.5823 40.1494 19.3438 42.388 19.3438 45.1494C19.3438 47.9108 21.5823 50.1494 24.3438 50.1494Z" fill="#385199"/>
<path opacity="0.15" d="M44.3438 50.1494C47.1052 50.1494 49.3438 47.9108 49.3438 45.1494C49.3438 42.388 47.1052 40.1494 44.3438 40.1494C41.5823 40.1494 39.3438 42.388 39.3438 45.1494C39.3438 47.9108 41.5823 50.1494 44.3438 50.1494Z" fill="#385199"/>
<path opacity="0.15" d="M63.6836 50.1494C66.445 50.1494 68.6836 47.9108 68.6836 45.1494C68.6836 42.388 66.445 40.1494 63.6836 40.1494C60.9222 40.1494 58.6836 42.388 58.6836 45.1494C58.6836 47.9108 60.9222 50.1494 63.6836 50.1494Z" fill="#385199"/>
</g>
<defs>
<clipPath id="clip0_310_135">
<rect width="69" height="51" fill="white"/>
</clipPath>
</defs>
</svg>
