<svg width="51" height="69" viewBox="0 0 51 69" fill="none" xmlns="http://www.w3.org/2000/svg">
<g clip-path="url(#clip0_310_85)">
<path opacity="0.15" d="M10 63.6836C10 60.9222 7.76142 58.6836 5 58.6836C2.23858 58.6836 0 60.9222 0 63.6836C0 66.445 2.23858 68.6836 5 68.6836C7.76142 68.6836 10 66.445 10 63.6836Z" fill="#385199"/>
<path opacity="0.15" d="M10 44.3418C10 41.5804 7.76142 39.3418 5 39.3418C2.23858 39.3418 0 41.5804 0 44.3418C0 47.1032 2.23858 49.3418 5 49.3418C7.76142 49.3418 10 47.1032 10 44.3418Z" fill="#7093FF"/>
<path opacity="0.15" d="M30.1484 63.6836C30.1484 60.9222 27.9099 58.6836 25.1484 58.6836C22.387 58.6836 20.1484 60.9222 20.1484 63.6836C20.1484 66.445 22.387 68.6836 25.1484 68.6836C27.9099 68.6836 30.1484 66.445 30.1484 63.6836Z" fill="#7093FF"/>
<path opacity="0.15" d="M30.1484 44.3418C30.1484 41.5804 27.9099 39.3418 25.1484 39.3418C22.387 39.3418 20.1484 41.5804 20.1484 44.3418C20.1484 47.1032 22.387 49.3418 25.1484 49.3418C27.9099 49.3418 30.1484 47.1032 30.1484 44.3418Z" fill="#7093FF"/>
<path d="M30.1484 24.3418C30.1484 21.5804 27.9099 19.3418 25.1484 19.3418C22.387 19.3418 20.1484 21.5804 20.1484 24.3418C20.1484 27.1032 22.387 29.3418 25.1484 29.3418C27.9099 29.3418 30.1484 27.1032 30.1484 24.3418Z" fill="#4C57F4"/>
<path opacity="0.15" d="M30.1484 5C30.1484 2.23858 27.9099 0 25.1484 0C22.387 0 20.1484 2.23858 20.1484 5C20.1484 7.76142 22.387 10 25.1484 10C27.9099 10 30.1484 7.76142 30.1484 5Z" fill="#7093FF"/>
<path opacity="0.15" d="M50.1484 63.6836C50.1484 60.9222 47.9099 58.6836 45.1484 58.6836C42.387 58.6836 40.1484 60.9222 40.1484 63.6836C40.1484 66.445 42.387 68.6836 45.1484 68.6836C47.9099 68.6836 50.1484 66.445 50.1484 63.6836Z" fill="white"/>
<path opacity="0.15" d="M50.1484 44.3418C50.1484 41.5804 47.9099 39.3418 45.1484 39.3418C42.387 39.3418 40.1484 41.5804 40.1484 44.3418C40.1484 47.1032 42.387 49.3418 45.1484 49.3418C47.9099 49.3418 50.1484 47.1032 50.1484 44.3418Z" fill="#7093FF"/>
<path opacity="0.15" d="M50.1484 24.3418C50.1484 21.5804 47.9099 19.3418 45.1484 19.3418C42.387 19.3418 40.1484 21.5804 40.1484 24.3418C40.1484 27.1032 42.387 29.3418 45.1484 29.3418C47.9099 29.3418 50.1484 27.1032 50.1484 24.3418Z" fill="#7093FF"/>
<path opacity="0.15" d="M50.1484 5C50.1484 2.23858 47.9099 0 45.1484 0C42.387 0 40.1484 2.23858 40.1484 5C40.1484 7.76142 42.387 10 45.1484 10C47.9099 10 50.1484 7.76142 50.1484 5Z" fill="#7093FF"/>
</g>
<defs>
<clipPath id="clip0_310_85">
<rect width="51" height="69" fill="white"/>
</clipPath>
</defs>
</svg>
